<svg xmlns="http://www.w3.org/2000/svg" style="margin:auto;background:rgba(NaN, NaN, NaN, 0);display:block;" width="280" height="250" preserveAspectRatio="xMidYMid">
<style type="text/css">
  text {
    text-anchor: middle; font-size: 99px; opacity: 0;
  }
  @keyframes loadingAnimation{
  0% {
    animation-timing-function: cubic-bezier(0.9647,0.2413,-0.0705,0.7911);
    transform: scale(0.9099999999999999);
  }
  51% {
    animation-timing-function: cubic-bezier(0.9226,0.2631,-0.0308,0.7628);
    transform: scale(1.02994);
  }
  100% {
    transform: scale(0.9099999999999999);
  }
}
</style>
<g style="transform-origin: 140px 125px; transform: scale(1.2375);">
<g transform="translate(140,125)">
  <g transform="translate(0,0)"><g class="path" style="transform: scale(0.91); transform-origin: -13.36px -27.1093px; animation: 0.617284s linear -0.271605s infinite normal forwards running loadingAnimation;"><path d="M18.56-62.56L18.56-62.56Q22.72-62.56 26.32-60.44L26.32-60.44L26.32-60.44Q29.92-58.32 32.04-54.72L32.04-54.72L32.04-54.72Q34.16-51.12 34.16-46.88L34.16-46.88L34.16-46.88Q34.16-42.64 32.04-39.08L32.04-39.08L32.04-39.08Q29.92-35.52 26.36-33.40L26.36-33.40L26.36-33.40Q22.80-31.28 18.56-31.28L18.56-31.28L18.56-31.28Q14.32-31.28 10.72-33.40L10.72-33.40L10.72-33.40Q7.12-35.52 5-39.08L5-39.08L5-39.08Q2.88-42.64 2.88-46.88L2.88-46.88L2.88-46.88Q2.88-51.12 5-54.72L5-54.72L5-54.72Q7.12-58.32 10.72-60.44L10.72-60.44L10.72-60.44Q14.32-62.56 18.56-62.56L18.56-62.56zM18.56-56.48L18.56-56.48Q16-56.48 13.80-55.16L13.80-55.16L13.80-55.16Q11.60-53.84 10.28-51.64L10.28-51.64L10.28-51.64Q8.96-49.44 8.96-46.88L8.96-46.88L8.96-46.88Q8.96-44.32 10.24-42.16L10.24-42.16L10.24-42.16Q11.52-40 13.76-38.68L13.76-38.68L13.76-38.68Q16-37.36 18.56-37.36L18.56-37.36L18.56-37.36Q21.12-37.36 23.32-38.68L23.32-38.68L23.32-38.68Q25.52-40 26.80-42.16L26.80-42.16L26.80-42.16Q28.08-44.32 28.08-46.88L28.08-46.88L28.08-46.88Q28.08-49.44 26.76-51.64L26.76-51.64L26.76-51.64Q25.44-53.84 23.24-55.16L23.24-55.16L23.24-55.16Q21.04-56.48 18.56-56.48L18.56-56.48" fill="#7cb3cf" stroke="none" stroke-width="none" transform="translate(-31.8800048828125,19.810665893554688)" style="fill: rgb(124, 179, 207);"></path></g><g class="path" style="transform: scale(0.91); transform-origin: 2.91999px -11.4693px; animation: 0.617284s linear -0.135802s infinite normal forwards running loadingAnimation;"><path d="M54.32-61.28L54.32-61.28Q55.44-62.56 56.80-62.56L56.80-62.56L56.80-62.56Q58.16-62.56 59.04-61.64L59.04-61.64L59.04-61.64Q59.92-60.72 59.92-59.36L59.92-59.36L59.92-59.36Q59.92-58.32 59.36-57.52L59.36-57.52L15.12-1.04L15.12-1.04Q14.08 0 12.72 0L12.72 0L12.72 0Q11.44 0 10.56-0.88L10.56-0.88L10.56-0.88Q9.68-1.76 9.68-3.12L9.68-3.12L9.68-3.12Q9.68-4.24 10.40-5.20L10.40-5.20L54.32-61.28" fill="#7cb3cf" stroke="none" stroke-width="none" transform="translate(-31.8800048828125,19.810665893554688)" style="fill: rgb(169, 166, 185);"></path></g><g class="path" style="transform: scale(0.91); transform-origin: 19.12px 4.21066px; animation: 0.617284s linear 0s infinite normal forwards running loadingAnimation;"><path d="M50.96-31.20L50.96-31.20Q55.20-31.20 58.80-29.12L58.80-29.12L58.80-29.12Q62.40-27.04 64.52-23.44L64.52-23.44L64.52-23.44Q66.64-19.84 66.64-15.60L66.64-15.60L66.64-15.60Q66.64-11.36 64.52-7.76L64.52-7.76L64.52-7.76Q62.40-4.16 58.80-2.08L58.80-2.08L58.80-2.08Q55.20 0 50.96 0L50.96 0L50.96 0Q46.72 0 43.16-2.12L43.16-2.12L43.16-2.12Q39.60-4.24 37.48-7.80L37.48-7.80L37.48-7.80Q35.36-11.36 35.36-15.60L35.36-15.60L35.36-15.60Q35.36-19.84 37.48-23.40L37.48-23.40L37.48-23.40Q39.60-26.96 43.16-29.08L43.16-29.08L43.16-29.08Q46.72-31.20 50.96-31.20L50.96-31.20zM50.96-25.12L50.96-25.12Q47.04-25.12 44.24-22.32L44.24-22.32L44.24-22.32Q41.44-19.52 41.44-15.60L41.44-15.60L41.44-15.60Q41.44-11.68 44.24-8.88L44.24-8.88L44.24-8.88Q47.04-6.08 50.96-6.08L50.96-6.08L50.96-6.08Q53.52-6.08 55.72-7.40L55.72-7.40L55.72-7.40Q57.92-8.72 59.24-10.92L59.24-10.92L59.24-10.92Q60.56-13.12 60.56-15.60L60.56-15.60L60.56-15.60Q60.56-18.08 59.24-20.28L59.24-20.28L59.24-20.28Q57.92-22.48 55.72-23.80L55.72-23.80L55.72-23.80Q53.52-25.12 50.96-25.12L50.96-25.12" fill="#7cb3cf" stroke="none" stroke-width="none" transform="translate(-31.8800048828125,19.810665893554688)" style="fill: rgb(185, 166, 178);"></path></g></g>
</g>
</g>
</svg>