<svg width="1104" height="194" viewBox="0 0 1104 194" fill="none" xmlns="http://www.w3.org/2000/svg">
<path d="M45.352 147.068C43.9866 147.068 42.8346 146.599 41.896 145.66C40.9573 144.721 40.488 143.527 40.488 142.076C40.488 140.796 40.872 139.687 41.64 138.748L111.912 49.02C112.509 48.4227 113.107 47.9533 113.704 47.612C114.387 47.1853 115.112 46.972 115.88 46.972C117.331 46.972 118.525 47.484 119.464 48.508C120.403 49.4467 120.872 50.6413 120.872 52.092C120.872 53.2013 120.573 54.1827 119.976 55.036L49.192 145.404C48.0826 146.513 46.8026 147.068 45.352 147.068Z" fill="#A9A6B9"/>
<path fill-rule="evenodd" clip-rule="evenodd" d="M55.088 96.524C50.48 96.524 46.256 95.4147 42.416 93.196C38.6613 90.892 35.632 87.8627 33.328 84.108C31.1093 80.268 30 76.0867 30 71.564C30 67.0413 31.1093 62.9027 33.328 59.148C35.632 55.308 38.6613 52.236 42.416 49.932C46.256 47.628 50.48 46.476 55.088 46.476C59.6107 46.476 63.7493 47.628 67.504 49.932C71.344 52.236 74.3733 55.308 76.592 59.148C78.896 62.9027 80.048 67.0413 80.048 71.564C80.048 76.0867 78.896 80.268 76.592 84.108C74.3733 87.8627 71.344 90.892 67.504 93.196C63.7493 95.4147 59.6107 96.524 55.088 96.524ZM62.64 84.748C60.336 86.1133 57.8187 86.796 55.088 86.796C52.272 86.796 49.712 86.1133 47.408 84.748C45.104 83.2973 43.2267 81.42 41.776 79.116C40.4107 76.812 39.728 74.2947 39.728 71.564C39.728 68.748 40.4107 66.188 41.776 63.884C43.2267 61.58 45.104 59.7453 47.408 58.38C49.7973 56.9293 52.3573 56.204 55.088 56.204C57.7333 56.204 60.208 56.9293 62.512 58.38C64.9013 59.7453 66.7787 61.58 68.144 63.884C69.5947 66.188 70.32 68.748 70.32 71.564C70.32 74.2947 69.5947 76.812 68.144 79.116C66.7787 81.42 64.944 83.2973 62.64 84.748Z" fill="#7CB3CF"/>
<path fill-rule="evenodd" clip-rule="evenodd" d="M106.088 147.524C101.48 147.524 97.256 146.415 93.416 144.196C89.6613 141.892 86.632 138.863 84.328 135.108C82.1093 131.268 81 127.087 81 122.564C81 118.041 82.1093 113.903 84.328 110.148C86.632 106.308 89.6613 103.236 93.416 100.932C97.256 98.628 101.48 97.476 106.088 97.476C110.611 97.476 114.749 98.628 118.504 100.932C122.344 103.236 125.373 106.308 127.592 110.148C129.896 113.903 131.048 118.041 131.048 122.564C131.048 127.087 129.896 131.268 127.592 135.108C125.373 138.863 122.344 141.892 118.504 144.196C114.749 146.415 110.611 147.524 106.088 147.524ZM113.64 135.748C111.336 137.113 108.819 137.796 106.088 137.796C103.272 137.796 100.712 137.113 98.408 135.748C96.104 134.297 94.2267 132.42 92.776 130.116C91.4107 127.812 90.728 125.295 90.728 122.564C90.728 119.748 91.4107 117.188 92.776 114.884C94.2267 112.58 96.104 110.745 98.408 109.38C100.797 107.929 103.357 107.204 106.088 107.204C108.733 107.204 111.208 107.929 113.512 109.38C115.901 110.745 117.779 112.58 119.144 114.884C120.595 117.188 121.32 119.748 121.32 122.564C121.32 125.295 120.595 127.812 119.144 130.116C117.779 132.42 115.944 134.297 113.64 135.748Z" fill="#B9A6B2"/>
<path d="M179.343 128C177.935 128 176.751 127.52 175.791 126.56C174.831 125.6 174.351 124.416 174.351 123.008V58.016C174.351 56.544 174.831 55.36 175.791 54.464C176.751 53.504 177.935 53.024 179.343 53.024H222.735C224.207 53.024 225.391 53.472 226.287 54.368C227.183 55.2 227.631 56.32 227.631 57.728C227.631 59.072 227.183 60.16 226.287 60.992C225.391 61.824 224.207 62.24 222.735 62.24H184.335V85.568H211.887C213.359 85.568 214.543 86.016 215.439 86.912C216.335 87.744 216.783 88.832 216.783 90.176C216.783 91.52 216.335 92.64 215.439 93.536C214.543 94.368 213.359 94.784 211.887 94.784H184.335V118.784H222.735C224.207 118.784 225.391 119.2 226.287 120.032C227.183 120.864 227.631 121.952 227.631 123.296C227.631 124.704 227.183 125.856 226.287 126.752C225.391 127.584 224.207 128 222.735 128H179.343ZM274.568 128C273.928 128 273.32 127.904 272.744 127.712C272.168 127.52 271.624 127.104 271.112 126.464L254.312 106.304L250.856 102.848L234.152 83.072C233.32 82.048 232.872 80.96 232.808 79.808C232.744 78.592 233.064 77.568 233.768 76.736C234.472 75.904 235.528 75.488 236.936 75.488C238.472 75.488 239.688 76.032 240.584 77.12L257 96.704L259.496 99.008L277.544 120.608C278.504 121.76 278.952 122.912 278.888 124.064C278.888 125.152 278.472 126.08 277.64 126.848C276.872 127.616 275.848 128 274.568 128ZM237.896 128C236.616 128 235.592 127.616 234.824 126.848C234.12 126.016 233.768 125.024 233.768 123.872C233.768 122.72 234.216 121.568 235.112 120.416L251.432 99.968L256.616 107.264L241.352 126.464C240.392 127.488 239.24 128 237.896 128ZM261.608 103.328L254.984 97.664L270.44 77.12C270.952 76.48 271.496 76.064 272.072 75.872C272.648 75.616 273.288 75.488 273.992 75.488C275.4 75.488 276.456 75.936 277.16 76.832C277.864 77.664 278.184 78.688 278.12 79.904C278.12 81.12 277.672 82.304 276.776 83.456L261.608 103.328ZM296.037 150.464C294.629 150.464 293.445 149.984 292.485 149.024C291.589 148.128 291.141 146.976 291.141 145.568V101.792C291.205 96.736 292.389 92.192 294.693 88.16C296.997 84.128 300.133 80.96 304.101 78.656C308.069 76.288 312.549 75.104 317.541 75.104C322.597 75.104 327.109 76.288 331.077 78.656C335.045 80.96 338.181 84.128 340.485 88.16C342.853 92.192 344.037 96.736 344.037 101.792C344.037 106.848 342.949 111.392 340.773 115.424C338.661 119.392 335.749 122.56 332.037 124.928C328.325 127.232 324.133 128.384 319.461 128.384C315.685 128.384 312.197 127.616 308.997 126.08C305.861 124.48 303.173 122.336 300.933 119.648V145.568C300.933 146.976 300.485 148.128 299.589 149.024C298.693 149.984 297.509 150.464 296.037 150.464ZM317.541 119.744C320.805 119.744 323.717 118.976 326.277 117.44C328.837 115.84 330.853 113.696 332.325 111.008C333.861 108.256 334.629 105.184 334.629 101.792C334.629 98.336 333.861 95.264 332.325 92.576C330.853 89.824 328.837 87.68 326.277 86.144C323.717 84.544 320.805 83.744 317.541 83.744C314.341 83.744 311.429 84.544 308.805 86.144C306.245 87.68 304.229 89.824 302.757 92.576C301.285 95.264 300.549 98.336 300.549 101.792C300.549 105.184 301.285 108.256 302.757 111.008C304.229 113.696 306.245 115.84 308.805 117.44C311.429 118.976 314.341 119.744 317.541 119.744ZM383.313 128.384C378.001 128.384 373.265 127.264 369.105 125.024C365.009 122.72 361.777 119.584 359.409 115.616C357.105 111.584 355.953 106.976 355.953 101.792C355.953 96.544 357.041 91.936 359.217 87.968C361.457 83.936 364.529 80.8 368.433 78.56C372.337 76.256 376.817 75.104 381.873 75.104C386.865 75.104 391.153 76.224 394.737 78.464C398.321 80.64 401.041 83.68 402.897 87.584C404.817 91.424 405.777 95.872 405.777 100.928C405.777 102.144 405.361 103.168 404.529 104C403.697 104.768 402.641 105.152 401.361 105.152H362.673V97.472H401.073L397.137 100.16C397.073 96.96 396.433 94.112 395.217 91.616C394.001 89.056 392.273 87.04 390.033 85.568C387.793 84.096 385.073 83.36 381.873 83.36C378.225 83.36 375.089 84.16 372.465 85.76C369.905 87.36 367.953 89.568 366.609 92.384C365.265 95.136 364.593 98.272 364.593 101.792C364.593 105.312 365.393 108.448 366.993 111.2C368.593 113.952 370.801 116.128 373.617 117.728C376.433 119.328 379.665 120.128 383.313 120.128C385.297 120.128 387.313 119.776 389.361 119.072C391.473 118.304 393.169 117.44 394.449 116.48C395.409 115.776 396.433 115.424 397.521 115.424C398.673 115.36 399.665 115.68 400.497 116.384C401.585 117.344 402.161 118.4 402.225 119.552C402.289 120.704 401.777 121.696 400.689 122.528C398.513 124.256 395.793 125.664 392.529 126.752C389.329 127.84 386.257 128.384 383.313 128.384ZM462.618 128.096C461.21 128.096 460.026 127.648 459.066 126.752C458.17 125.792 457.722 124.608 457.722 123.2V99.584C457.722 95.936 457.05 92.96 455.706 90.656C454.362 88.352 452.538 86.656 450.234 85.568C447.994 84.416 445.402 83.84 442.458 83.84C439.77 83.84 437.338 84.384 435.162 85.472C432.986 86.56 431.258 88.032 429.978 89.888C428.698 91.68 428.058 93.76 428.058 96.128H422.01C422.01 92.096 422.97 88.512 424.89 85.376C426.874 82.176 429.562 79.648 432.954 77.792C436.346 75.936 440.154 75.008 444.378 75.008C448.794 75.008 452.73 75.968 456.186 77.888C459.706 79.744 462.458 82.496 464.442 86.144C466.49 89.792 467.514 94.272 467.514 99.584V123.2C467.514 124.608 467.034 125.792 466.074 126.752C465.178 127.648 464.026 128.096 462.618 128.096ZM423.162 128.096C421.754 128.096 420.57 127.648 419.61 126.752C418.714 125.792 418.266 124.608 418.266 123.2V80.384C418.266 78.912 418.714 77.728 419.61 76.832C420.57 75.936 421.754 75.488 423.162 75.488C424.634 75.488 425.818 75.936 426.714 76.832C427.61 77.728 428.058 78.912 428.058 80.384V123.2C428.058 124.608 427.61 125.792 426.714 126.752C425.818 127.648 424.634 128.096 423.162 128.096ZM502.808 128.384C498.328 128.384 494.168 127.712 490.328 126.368C486.552 124.96 483.608 123.2 481.496 121.088C480.536 120.064 480.12 118.912 480.248 117.632C480.44 116.288 481.08 115.2 482.168 114.368C483.448 113.344 484.696 112.928 485.912 113.12C487.192 113.248 488.28 113.792 489.176 114.752C490.264 115.968 491.992 117.12 494.36 118.208C496.792 119.232 499.48 119.744 502.424 119.744C506.136 119.744 508.952 119.136 510.872 117.92C512.856 116.704 513.88 115.136 513.944 113.216C514.008 111.296 513.08 109.632 511.16 108.224C509.304 106.816 505.88 105.664 500.888 104.768C494.424 103.488 489.72 101.568 486.776 99.008C483.896 96.448 482.456 93.312 482.456 89.6C482.456 86.336 483.416 83.648 485.336 81.536C487.256 79.36 489.72 77.76 492.728 76.736C495.736 75.648 498.872 75.104 502.136 75.104C506.36 75.104 510.104 75.776 513.368 77.12C516.632 78.464 519.224 80.32 521.144 82.688C522.04 83.712 522.456 84.8 522.392 85.952C522.328 87.04 521.784 87.968 520.76 88.736C519.736 89.44 518.52 89.664 517.112 89.408C515.704 89.152 514.52 88.576 513.56 87.68C511.96 86.144 510.232 85.088 508.376 84.512C506.52 83.936 504.376 83.648 501.944 83.648C499.128 83.648 496.728 84.128 494.744 85.088C492.824 86.048 491.864 87.456 491.864 89.312C491.864 90.464 492.152 91.52 492.728 92.48C493.368 93.376 494.584 94.208 496.376 94.976C498.168 95.68 500.792 96.384 504.248 97.088C509.048 98.048 512.824 99.264 515.576 100.736C518.392 102.208 520.408 103.936 521.624 105.92C522.84 107.84 523.448 110.08 523.448 112.64C523.448 115.584 522.648 118.24 521.048 120.608C519.512 122.976 517.208 124.864 514.136 126.272C511.128 127.68 507.352 128.384 502.808 128.384ZM560.501 128.384C555.189 128.384 550.453 127.264 546.293 125.024C542.197 122.72 538.965 119.584 536.597 115.616C534.293 111.584 533.141 106.976 533.141 101.792C533.141 96.544 534.229 91.936 536.405 87.968C538.645 83.936 541.717 80.8 545.621 78.56C549.525 76.256 554.005 75.104 559.061 75.104C564.053 75.104 568.341 76.224 571.925 78.464C575.509 80.64 578.229 83.68 580.085 87.584C582.005 91.424 582.965 95.872 582.965 100.928C582.965 102.144 582.549 103.168 581.717 104C580.885 104.768 579.829 105.152 578.549 105.152H539.861V97.472H578.261L574.325 100.16C574.261 96.96 573.621 94.112 572.405 91.616C571.189 89.056 569.461 87.04 567.221 85.568C564.981 84.096 562.261 83.36 559.061 83.36C555.413 83.36 552.277 84.16 549.653 85.76C547.093 87.36 545.141 89.568 543.797 92.384C542.453 95.136 541.781 98.272 541.781 101.792C541.781 105.312 542.581 108.448 544.181 111.2C545.781 113.952 547.989 116.128 550.805 117.728C553.621 119.328 556.853 120.128 560.501 120.128C562.485 120.128 564.501 119.776 566.549 119.072C568.661 118.304 570.357 117.44 571.637 116.48C572.597 115.776 573.621 115.424 574.709 115.424C575.861 115.36 576.853 115.68 577.685 116.384C578.773 117.344 579.349 118.4 579.413 119.552C579.477 120.704 578.965 121.696 577.877 122.528C575.701 124.256 572.981 125.664 569.717 126.752C566.517 127.84 563.445 128.384 560.501 128.384ZM614.558 128.384C610.078 128.384 605.918 127.712 602.078 126.368C598.302 124.96 595.358 123.2 593.246 121.088C592.286 120.064 591.87 118.912 591.998 117.632C592.19 116.288 592.83 115.2 593.918 114.368C595.198 113.344 596.446 112.928 597.662 113.12C598.942 113.248 600.03 113.792 600.926 114.752C602.014 115.968 603.742 117.12 606.11 118.208C608.542 119.232 611.23 119.744 614.174 119.744C617.886 119.744 620.702 119.136 622.622 117.92C624.606 116.704 625.63 115.136 625.694 113.216C625.758 111.296 624.83 109.632 622.91 108.224C621.054 106.816 617.63 105.664 612.638 104.768C606.174 103.488 601.47 101.568 598.526 99.008C595.646 96.448 594.206 93.312 594.206 89.6C594.206 86.336 595.166 83.648 597.086 81.536C599.006 79.36 601.47 77.76 604.478 76.736C607.486 75.648 610.622 75.104 613.886 75.104C618.11 75.104 621.854 75.776 625.118 77.12C628.382 78.464 630.974 80.32 632.894 82.688C633.79 83.712 634.206 84.8 634.142 85.952C634.078 87.04 633.534 87.968 632.51 88.736C631.486 89.44 630.27 89.664 628.862 89.408C627.454 89.152 626.27 88.576 625.31 87.68C623.71 86.144 621.982 85.088 620.126 84.512C618.27 83.936 616.126 83.648 613.694 83.648C610.878 83.648 608.478 84.128 606.494 85.088C604.574 86.048 603.614 87.456 603.614 89.312C603.614 90.464 603.902 91.52 604.478 92.48C605.118 93.376 606.334 94.208 608.126 94.976C609.918 95.68 612.542 96.384 615.998 97.088C620.798 98.048 624.574 99.264 627.326 100.736C630.142 102.208 632.158 103.936 633.374 105.92C634.59 107.84 635.198 110.08 635.198 112.64C635.198 115.584 634.398 118.24 632.798 120.608C631.262 122.976 628.958 124.864 625.886 126.272C622.878 127.68 619.102 128.384 614.558 128.384ZM700.472 128.96C696.376 128.96 692.472 128.32 688.76 127.04C685.048 125.76 681.816 123.968 679.064 121.664C676.312 119.36 674.296 116.704 673.016 113.696C672.376 112.352 672.376 111.104 673.016 109.952C673.72 108.8 674.872 108.064 676.472 107.744C677.624 107.488 678.744 107.68 679.832 108.32C680.984 108.896 681.848 109.792 682.424 111.008C683.192 112.608 684.44 114.08 686.168 115.424C687.96 116.768 690.104 117.856 692.6 118.688C695.096 119.52 697.72 119.936 700.472 119.936C703.544 119.936 706.36 119.456 708.92 118.496C711.544 117.536 713.656 116.16 715.256 114.368C716.856 112.512 717.656 110.24 717.656 107.552C717.656 104.16 716.312 101.12 713.624 98.432C711 95.744 706.648 94.08 700.568 93.44C692.632 92.672 686.392 90.336 681.848 86.432C677.304 82.528 675.032 77.696 675.032 71.936C675.032 67.712 676.216 64.128 678.584 61.184C680.952 58.24 684.152 56 688.184 54.464C692.28 52.928 696.824 52.16 701.816 52.16C705.72 52.16 709.112 52.704 711.992 53.792C714.936 54.88 717.496 56.384 719.672 58.304C721.848 60.224 723.736 62.496 725.336 65.12C726.232 66.528 726.584 67.872 726.392 69.152C726.264 70.368 725.656 71.328 724.568 72.032C723.352 72.8 722.04 72.96 720.632 72.512C719.224 72.064 718.168 71.232 717.464 70.016C716.44 68.16 715.192 66.592 713.72 65.312C712.248 64.032 710.52 63.04 708.536 62.336C706.552 61.568 704.216 61.184 701.528 61.184C696.792 61.12 692.824 62.016 689.624 63.872C686.424 65.664 684.824 68.448 684.824 72.224C684.824 74.144 685.304 76 686.264 77.792C687.288 79.52 689.112 81.024 691.736 82.304C694.424 83.584 698.264 84.48 703.256 84.992C710.872 85.76 716.792 88.096 721.016 92C725.304 95.84 727.448 100.928 727.448 107.264C727.448 110.912 726.68 114.08 725.144 116.768C723.672 119.456 721.656 121.728 719.096 123.584C716.6 125.376 713.72 126.72 710.456 127.616C707.256 128.512 703.928 128.96 700.472 128.96ZM746.693 108.896C745.285 108.896 744.101 108.448 743.141 107.552C742.245 106.592 741.797 105.408 741.797 104V57.92C741.797 56.448 742.245 55.264 743.141 54.368C744.101 53.472 745.285 53.024 746.693 53.024C748.165 53.024 749.349 53.472 750.245 54.368C751.141 55.264 751.589 56.448 751.589 57.92V104C751.589 105.408 751.141 106.592 750.245 107.552C749.349 108.448 748.165 108.896 746.693 108.896ZM786.149 128.096C784.741 128.096 783.557 127.648 782.597 126.752C781.701 125.792 781.253 124.608 781.253 123.2V99.584C781.253 95.936 780.581 92.96 779.237 90.656C777.893 88.352 776.069 86.656 773.765 85.568C771.525 84.416 768.933 83.84 765.989 83.84C763.301 83.84 760.869 84.384 758.693 85.472C756.517 86.56 754.789 88.032 753.509 89.888C752.229 91.68 751.589 93.76 751.589 96.128H745.541C745.541 92.096 746.501 88.512 748.421 85.376C750.405 82.176 753.093 79.648 756.485 77.792C759.877 75.936 763.685 75.008 767.909 75.008C772.325 75.008 776.261 75.968 779.717 77.888C783.237 79.744 785.989 82.496 787.973 86.144C790.021 89.792 791.045 94.272 791.045 99.584V123.2C791.045 124.608 790.565 125.792 789.605 126.752C788.709 127.648 787.557 128.096 786.149 128.096ZM746.693 128.096C745.285 128.096 744.101 127.648 743.141 126.752C742.245 125.792 741.797 124.608 741.797 123.2V80.384C741.797 78.912 742.245 77.728 743.141 76.832C744.101 75.936 745.285 75.488 746.693 75.488C748.165 75.488 749.349 75.936 750.245 76.832C751.141 77.728 751.589 78.912 751.589 80.384V123.2C751.589 124.608 751.141 125.792 750.245 126.752C749.349 127.648 748.165 128.096 746.693 128.096ZM829.217 128.384C824.545 128.384 820.353 127.232 816.641 124.928C812.929 122.56 809.985 119.392 807.809 115.424C805.697 111.392 804.641 106.848 804.641 101.792C804.641 96.736 805.793 92.192 808.097 88.16C810.465 84.128 813.633 80.96 817.601 78.656C821.633 76.288 826.145 75.104 831.137 75.104C836.129 75.104 840.609 76.288 844.577 78.656C848.545 80.96 851.681 84.128 853.985 88.16C856.353 92.192 857.537 96.736 857.537 101.792H853.793C853.793 106.848 852.705 111.392 850.529 115.424C848.417 119.392 845.505 122.56 841.793 124.928C838.081 127.232 833.889 128.384 829.217 128.384ZM831.137 119.744C834.401 119.744 837.313 118.976 839.873 117.44C842.433 115.84 844.449 113.696 845.921 111.008C847.393 108.256 848.129 105.184 848.129 101.792C848.129 98.336 847.393 95.264 845.921 92.576C844.449 89.824 842.433 87.68 839.873 86.144C837.313 84.544 834.401 83.744 831.137 83.744C827.937 83.744 825.025 84.544 822.401 86.144C819.841 87.68 817.793 89.824 816.257 92.576C814.785 95.264 814.049 98.336 814.049 101.792C814.049 105.184 814.785 108.256 816.257 111.008C817.793 113.696 819.841 115.84 822.401 117.44C825.025 118.976 827.937 119.744 831.137 119.744ZM852.641 128.096C851.233 128.096 850.049 127.648 849.089 126.752C848.193 125.792 847.745 124.608 847.745 123.2V108.512L849.569 98.336L857.537 101.792V123.2C857.537 124.608 857.057 125.792 856.097 126.752C855.201 127.648 854.049 128.096 852.641 128.096ZM876.814 95.168C876.814 91.328 877.742 87.904 879.598 84.896C881.518 81.824 884.078 79.392 887.278 77.6C890.478 75.808 893.998 74.912 897.838 74.912C901.678 74.912 904.526 75.552 906.382 76.832C908.302 78.048 909.038 79.52 908.59 81.248C908.398 82.144 908.014 82.848 907.438 83.36C906.926 83.808 906.318 84.096 905.614 84.224C904.91 84.352 904.142 84.32 903.31 84.128C899.214 83.296 895.534 83.232 892.27 83.936C889.006 84.64 886.414 85.952 884.494 87.872C882.638 89.792 881.71 92.224 881.71 95.168H876.814ZM876.91 128C875.374 128 874.19 127.616 873.358 126.848C872.526 126.016 872.11 124.8 872.11 123.2V80.288C872.11 78.752 872.526 77.568 873.358 76.736C874.19 75.904 875.374 75.488 876.91 75.488C878.51 75.488 879.694 75.904 880.462 76.736C881.294 77.504 881.71 78.688 881.71 80.288V123.2C881.71 124.736 881.294 125.92 880.462 126.752C879.694 127.584 878.51 128 876.91 128ZM924.653 128C923.245 128 922.061 127.552 921.101 126.656C920.205 125.696 919.757 124.512 919.757 123.104V80.384C919.757 78.912 920.205 77.728 921.101 76.832C922.061 75.936 923.245 75.488 924.653 75.488C926.125 75.488 927.309 75.936 928.205 76.832C929.101 77.728 929.549 78.912 929.549 80.384V123.104C929.549 124.512 929.101 125.696 928.205 126.656C927.309 127.552 926.125 128 924.653 128ZM924.653 66.944C922.925 66.944 921.421 66.336 920.141 65.12C918.925 63.84 918.317 62.336 918.317 60.608C918.317 58.88 918.925 57.408 920.141 56.192C921.421 54.912 922.925 54.272 924.653 54.272C926.381 54.272 927.853 54.912 929.069 56.192C930.349 57.408 930.989 58.88 930.989 60.608C930.989 62.336 930.349 63.84 929.069 65.12C927.853 66.336 926.381 66.944 924.653 66.944ZM992.118 128.096C990.71 128.096 989.526 127.648 988.566 126.752C987.67 125.792 987.222 124.608 987.222 123.2V99.584C987.222 95.936 986.55 92.96 985.206 90.656C983.862 88.352 982.038 86.656 979.734 85.568C977.494 84.416 974.902 83.84 971.958 83.84C969.27 83.84 966.838 84.384 964.662 85.472C962.486 86.56 960.758 88.032 959.478 89.888C958.198 91.68 957.558 93.76 957.558 96.128H951.51C951.51 92.096 952.47 88.512 954.39 85.376C956.374 82.176 959.062 79.648 962.454 77.792C965.846 75.936 969.654 75.008 973.878 75.008C978.294 75.008 982.23 75.968 985.686 77.888C989.206 79.744 991.958 82.496 993.942 86.144C995.99 89.792 997.014 94.272 997.014 99.584V123.2C997.014 124.608 996.534 125.792 995.574 126.752C994.678 127.648 993.526 128.096 992.118 128.096ZM952.662 128.096C951.254 128.096 950.07 127.648 949.11 126.752C948.214 125.792 947.766 124.608 947.766 123.2V80.384C947.766 78.912 948.214 77.728 949.11 76.832C950.07 75.936 951.254 75.488 952.662 75.488C954.134 75.488 955.318 75.936 956.214 76.832C957.11 77.728 957.558 78.912 957.558 80.384V123.2C957.558 124.608 957.11 125.792 956.214 126.752C955.318 127.648 954.134 128.096 952.662 128.096ZM1035.09 128.384C1030.29 128.384 1026.04 127.264 1022.32 125.024C1018.68 122.72 1015.8 119.584 1013.68 115.616C1011.57 111.584 1010.52 106.976 1010.52 101.792C1010.52 96.544 1011.64 91.936 1013.88 87.968C1016.18 83.936 1019.32 80.8 1023.28 78.56C1027.25 76.256 1031.83 75.104 1037.01 75.104C1042.13 75.104 1046.68 76.256 1050.64 78.56C1054.61 80.8 1057.72 83.936 1059.96 87.968C1062.26 91.936 1063.41 96.544 1063.41 101.792H1057.75C1057.75 106.976 1056.76 111.584 1054.77 115.616C1052.85 119.584 1050.2 122.72 1046.8 125.024C1043.41 127.264 1039.51 128.384 1035.09 128.384ZM1036.82 149.792C1032.28 149.792 1028.02 148.896 1024.05 147.104C1020.08 145.312 1016.72 142.688 1013.97 139.232C1013.14 138.144 1012.82 137.024 1013.01 135.872C1013.27 134.72 1013.91 133.792 1014.93 133.088C1016.08 132.32 1017.27 132.064 1018.48 132.32C1019.76 132.576 1020.79 133.216 1021.56 134.24C1023.28 136.416 1025.46 138.112 1028.08 139.328C1030.71 140.544 1033.68 141.152 1037.01 141.152C1040.08 141.152 1042.9 140.416 1045.46 138.944C1048.08 137.472 1050.16 135.296 1051.7 132.416C1053.24 129.536 1054 126.016 1054 121.856V108.224L1057.17 99.776L1063.41 101.792V122.528C1063.41 127.584 1062.29 132.16 1060.05 136.256C1057.81 140.416 1054.68 143.712 1050.64 146.144C1046.68 148.576 1042.07 149.792 1036.82 149.792ZM1037.01 119.744C1040.34 119.744 1043.28 118.976 1045.84 117.44C1048.4 115.904 1050.39 113.792 1051.8 111.104C1053.27 108.416 1054 105.312 1054 101.792C1054 98.272 1053.27 95.168 1051.8 92.48C1050.39 89.728 1048.4 87.584 1045.84 86.048C1043.28 84.512 1040.34 83.744 1037.01 83.744C1033.68 83.744 1030.74 84.512 1028.18 86.048C1025.62 87.584 1023.6 89.728 1022.13 92.48C1020.66 95.168 1019.92 98.272 1019.92 101.792C1019.92 105.312 1020.66 108.416 1022.13 111.104C1023.6 113.792 1025.62 115.904 1028.18 117.44C1030.74 118.976 1033.68 119.744 1037.01 119.744Z" fill="white"/>
<path d="M179.343 128C177.935 128 176.751 127.52 175.791 126.56C174.831 125.6 174.351 124.416 174.351 123.008V58.016C174.351 56.544 174.831 55.36 175.791 54.464C176.751 53.504 177.935 53.024 179.343 53.024H222.735C224.207 53.024 225.391 53.472 226.287 54.368C227.183 55.2 227.631 56.32 227.631 57.728C227.631 59.072 227.183 60.16 226.287 60.992C225.391 61.824 224.207 62.24 222.735 62.24H184.335V85.568H211.887C213.359 85.568 214.543 86.016 215.439 86.912C216.335 87.744 216.783 88.832 216.783 90.176C216.783 91.52 216.335 92.64 215.439 93.536C214.543 94.368 213.359 94.784 211.887 94.784H184.335V118.784H222.735C224.207 118.784 225.391 119.2 226.287 120.032C227.183 120.864 227.631 121.952 227.631 123.296C227.631 124.704 227.183 125.856 226.287 126.752C225.391 127.584 224.207 128 222.735 128H179.343ZM274.568 128C273.928 128 273.32 127.904 272.744 127.712C272.168 127.52 271.624 127.104 271.112 126.464L254.312 106.304L250.856 102.848L234.152 83.072C233.32 82.048 232.872 80.96 232.808 79.808C232.744 78.592 233.064 77.568 233.768 76.736C234.472 75.904 235.528 75.488 236.936 75.488C238.472 75.488 239.688 76.032 240.584 77.12L257 96.704L259.496 99.008L277.544 120.608C278.504 121.76 278.952 122.912 278.888 124.064C278.888 125.152 278.472 126.08 277.64 126.848C276.872 127.616 275.848 128 274.568 128ZM237.896 128C236.616 128 235.592 127.616 234.824 126.848C234.12 126.016 233.768 125.024 233.768 123.872C233.768 122.72 234.216 121.568 235.112 120.416L251.432 99.968L256.616 107.264L241.352 126.464C240.392 127.488 239.24 128 237.896 128ZM261.608 103.328L254.984 97.664L270.44 77.12C270.952 76.48 271.496 76.064 272.072 75.872C272.648 75.616 273.288 75.488 273.992 75.488C275.4 75.488 276.456 75.936 277.16 76.832C277.864 77.664 278.184 78.688 278.12 79.904C278.12 81.12 277.672 82.304 276.776 83.456L261.608 103.328ZM296.037 150.464C294.629 150.464 293.445 149.984 292.485 149.024C291.589 148.128 291.141 146.976 291.141 145.568V101.792C291.205 96.736 292.389 92.192 294.693 88.16C296.997 84.128 300.133 80.96 304.101 78.656C308.069 76.288 312.549 75.104 317.541 75.104C322.597 75.104 327.109 76.288 331.077 78.656C335.045 80.96 338.181 84.128 340.485 88.16C342.853 92.192 344.037 96.736 344.037 101.792C344.037 106.848 342.949 111.392 340.773 115.424C338.661 119.392 335.749 122.56 332.037 124.928C328.325 127.232 324.133 128.384 319.461 128.384C315.685 128.384 312.197 127.616 308.997 126.08C305.861 124.48 303.173 122.336 300.933 119.648V145.568C300.933 146.976 300.485 148.128 299.589 149.024C298.693 149.984 297.509 150.464 296.037 150.464ZM317.541 119.744C320.805 119.744 323.717 118.976 326.277 117.44C328.837 115.84 330.853 113.696 332.325 111.008C333.861 108.256 334.629 105.184 334.629 101.792C334.629 98.336 333.861 95.264 332.325 92.576C330.853 89.824 328.837 87.68 326.277 86.144C323.717 84.544 320.805 83.744 317.541 83.744C314.341 83.744 311.429 84.544 308.805 86.144C306.245 87.68 304.229 89.824 302.757 92.576C301.285 95.264 300.549 98.336 300.549 101.792C300.549 105.184 301.285 108.256 302.757 111.008C304.229 113.696 306.245 115.84 308.805 117.44C311.429 118.976 314.341 119.744 317.541 119.744ZM383.313 128.384C378.001 128.384 373.265 127.264 369.105 125.024C365.009 122.72 361.777 119.584 359.409 115.616C357.105 111.584 355.953 106.976 355.953 101.792C355.953 96.544 357.041 91.936 359.217 87.968C361.457 83.936 364.529 80.8 368.433 78.56C372.337 76.256 376.817 75.104 381.873 75.104C386.865 75.104 391.153 76.224 394.737 78.464C398.321 80.64 401.041 83.68 402.897 87.584C404.817 91.424 405.777 95.872 405.777 100.928C405.777 102.144 405.361 103.168 404.529 104C403.697 104.768 402.641 105.152 401.361 105.152H362.673V97.472H401.073L397.137 100.16C397.073 96.96 396.433 94.112 395.217 91.616C394.001 89.056 392.273 87.04 390.033 85.568C387.793 84.096 385.073 83.36 381.873 83.36C378.225 83.36 375.089 84.16 372.465 85.76C369.905 87.36 367.953 89.568 366.609 92.384C365.265 95.136 364.593 98.272 364.593 101.792C364.593 105.312 365.393 108.448 366.993 111.2C368.593 113.952 370.801 116.128 373.617 117.728C376.433 119.328 379.665 120.128 383.313 120.128C385.297 120.128 387.313 119.776 389.361 119.072C391.473 118.304 393.169 117.44 394.449 116.48C395.409 115.776 396.433 115.424 397.521 115.424C398.673 115.36 399.665 115.68 400.497 116.384C401.585 117.344 402.161 118.4 402.225 119.552C402.289 120.704 401.777 121.696 400.689 122.528C398.513 124.256 395.793 125.664 392.529 126.752C389.329 127.84 386.257 128.384 383.313 128.384ZM462.618 128.096C461.21 128.096 460.026 127.648 459.066 126.752C458.17 125.792 457.722 124.608 457.722 123.2V99.584C457.722 95.936 457.05 92.96 455.706 90.656C454.362 88.352 452.538 86.656 450.234 85.568C447.994 84.416 445.402 83.84 442.458 83.84C439.77 83.84 437.338 84.384 435.162 85.472C432.986 86.56 431.258 88.032 429.978 89.888C428.698 91.68 428.058 93.76 428.058 96.128H422.01C422.01 92.096 422.97 88.512 424.89 85.376C426.874 82.176 429.562 79.648 432.954 77.792C436.346 75.936 440.154 75.008 444.378 75.008C448.794 75.008 452.73 75.968 456.186 77.888C459.706 79.744 462.458 82.496 464.442 86.144C466.49 89.792 467.514 94.272 467.514 99.584V123.2C467.514 124.608 467.034 125.792 466.074 126.752C465.178 127.648 464.026 128.096 462.618 128.096ZM423.162 128.096C421.754 128.096 420.57 127.648 419.61 126.752C418.714 125.792 418.266 124.608 418.266 123.2V80.384C418.266 78.912 418.714 77.728 419.61 76.832C420.57 75.936 421.754 75.488 423.162 75.488C424.634 75.488 425.818 75.936 426.714 76.832C427.61 77.728 428.058 78.912 428.058 80.384V123.2C428.058 124.608 427.61 125.792 426.714 126.752C425.818 127.648 424.634 128.096 423.162 128.096ZM502.808 128.384C498.328 128.384 494.168 127.712 490.328 126.368C486.552 124.96 483.608 123.2 481.496 121.088C480.536 120.064 480.12 118.912 480.248 117.632C480.44 116.288 481.08 115.2 482.168 114.368C483.448 113.344 484.696 112.928 485.912 113.12C487.192 113.248 488.28 113.792 489.176 114.752C490.264 115.968 491.992 117.12 494.36 118.208C496.792 119.232 499.48 119.744 502.424 119.744C506.136 119.744 508.952 119.136 510.872 117.92C512.856 116.704 513.88 115.136 513.944 113.216C514.008 111.296 513.08 109.632 511.16 108.224C509.304 106.816 505.88 105.664 500.888 104.768C494.424 103.488 489.72 101.568 486.776 99.008C483.896 96.448 482.456 93.312 482.456 89.6C482.456 86.336 483.416 83.648 485.336 81.536C487.256 79.36 489.72 77.76 492.728 76.736C495.736 75.648 498.872 75.104 502.136 75.104C506.36 75.104 510.104 75.776 513.368 77.12C516.632 78.464 519.224 80.32 521.144 82.688C522.04 83.712 522.456 84.8 522.392 85.952C522.328 87.04 521.784 87.968 520.76 88.736C519.736 89.44 518.52 89.664 517.112 89.408C515.704 89.152 514.52 88.576 513.56 87.68C511.96 86.144 510.232 85.088 508.376 84.512C506.52 83.936 504.376 83.648 501.944 83.648C499.128 83.648 496.728 84.128 494.744 85.088C492.824 86.048 491.864 87.456 491.864 89.312C491.864 90.464 492.152 91.52 492.728 92.48C493.368 93.376 494.584 94.208 496.376 94.976C498.168 95.68 500.792 96.384 504.248 97.088C509.048 98.048 512.824 99.264 515.576 100.736C518.392 102.208 520.408 103.936 521.624 105.92C522.84 107.84 523.448 110.08 523.448 112.64C523.448 115.584 522.648 118.24 521.048 120.608C519.512 122.976 517.208 124.864 514.136 126.272C511.128 127.68 507.352 128.384 502.808 128.384ZM560.501 128.384C555.189 128.384 550.453 127.264 546.293 125.024C542.197 122.72 538.965 119.584 536.597 115.616C534.293 111.584 533.141 106.976 533.141 101.792C533.141 96.544 534.229 91.936 536.405 87.968C538.645 83.936 541.717 80.8 545.621 78.56C549.525 76.256 554.005 75.104 559.061 75.104C564.053 75.104 568.341 76.224 571.925 78.464C575.509 80.64 578.229 83.68 580.085 87.584C582.005 91.424 582.965 95.872 582.965 100.928C582.965 102.144 582.549 103.168 581.717 104C580.885 104.768 579.829 105.152 578.549 105.152H539.861V97.472H578.261L574.325 100.16C574.261 96.96 573.621 94.112 572.405 91.616C571.189 89.056 569.461 87.04 567.221 85.568C564.981 84.096 562.261 83.36 559.061 83.36C555.413 83.36 552.277 84.16 549.653 85.76C547.093 87.36 545.141 89.568 543.797 92.384C542.453 95.136 541.781 98.272 541.781 101.792C541.781 105.312 542.581 108.448 544.181 111.2C545.781 113.952 547.989 116.128 550.805 117.728C553.621 119.328 556.853 120.128 560.501 120.128C562.485 120.128 564.501 119.776 566.549 119.072C568.661 118.304 570.357 117.44 571.637 116.48C572.597 115.776 573.621 115.424 574.709 115.424C575.861 115.36 576.853 115.68 577.685 116.384C578.773 117.344 579.349 118.4 579.413 119.552C579.477 120.704 578.965 121.696 577.877 122.528C575.701 124.256 572.981 125.664 569.717 126.752C566.517 127.84 563.445 128.384 560.501 128.384ZM614.558 128.384C610.078 128.384 605.918 127.712 602.078 126.368C598.302 124.96 595.358 123.2 593.246 121.088C592.286 120.064 591.87 118.912 591.998 117.632C592.19 116.288 592.83 115.2 593.918 114.368C595.198 113.344 596.446 112.928 597.662 113.12C598.942 113.248 600.03 113.792 600.926 114.752C602.014 115.968 603.742 117.12 606.11 118.208C608.542 119.232 611.23 119.744 614.174 119.744C617.886 119.744 620.702 119.136 622.622 117.92C624.606 116.704 625.63 115.136 625.694 113.216C625.758 111.296 624.83 109.632 622.91 108.224C621.054 106.816 617.63 105.664 612.638 104.768C606.174 103.488 601.47 101.568 598.526 99.008C595.646 96.448 594.206 93.312 594.206 89.6C594.206 86.336 595.166 83.648 597.086 81.536C599.006 79.36 601.47 77.76 604.478 76.736C607.486 75.648 610.622 75.104 613.886 75.104C618.11 75.104 621.854 75.776 625.118 77.12C628.382 78.464 630.974 80.32 632.894 82.688C633.79 83.712 634.206 84.8 634.142 85.952C634.078 87.04 633.534 87.968 632.51 88.736C631.486 89.44 630.27 89.664 628.862 89.408C627.454 89.152 626.27 88.576 625.31 87.68C623.71 86.144 621.982 85.088 620.126 84.512C618.27 83.936 616.126 83.648 613.694 83.648C610.878 83.648 608.478 84.128 606.494 85.088C604.574 86.048 603.614 87.456 603.614 89.312C603.614 90.464 603.902 91.52 604.478 92.48C605.118 93.376 606.334 94.208 608.126 94.976C609.918 95.68 612.542 96.384 615.998 97.088C620.798 98.048 624.574 99.264 627.326 100.736C630.142 102.208 632.158 103.936 633.374 105.92C634.59 107.84 635.198 110.08 635.198 112.64C635.198 115.584 634.398 118.24 632.798 120.608C631.262 122.976 628.958 124.864 625.886 126.272C622.878 127.68 619.102 128.384 614.558 128.384ZM700.472 128.96C696.376 128.96 692.472 128.32 688.76 127.04C685.048 125.76 681.816 123.968 679.064 121.664C676.312 119.36 674.296 116.704 673.016 113.696C672.376 112.352 672.376 111.104 673.016 109.952C673.72 108.8 674.872 108.064 676.472 107.744C677.624 107.488 678.744 107.68 679.832 108.32C680.984 108.896 681.848 109.792 682.424 111.008C683.192 112.608 684.44 114.08 686.168 115.424C687.96 116.768 690.104 117.856 692.6 118.688C695.096 119.52 697.72 119.936 700.472 119.936C703.544 119.936 706.36 119.456 708.92 118.496C711.544 117.536 713.656 116.16 715.256 114.368C716.856 112.512 717.656 110.24 717.656 107.552C717.656 104.16 716.312 101.12 713.624 98.432C711 95.744 706.648 94.08 700.568 93.44C692.632 92.672 686.392 90.336 681.848 86.432C677.304 82.528 675.032 77.696 675.032 71.936C675.032 67.712 676.216 64.128 678.584 61.184C680.952 58.24 684.152 56 688.184 54.464C692.28 52.928 696.824 52.16 701.816 52.16C705.72 52.16 709.112 52.704 711.992 53.792C714.936 54.88 717.496 56.384 719.672 58.304C721.848 60.224 723.736 62.496 725.336 65.12C726.232 66.528 726.584 67.872 726.392 69.152C726.264 70.368 725.656 71.328 724.568 72.032C723.352 72.8 722.04 72.96 720.632 72.512C719.224 72.064 718.168 71.232 717.464 70.016C716.44 68.16 715.192 66.592 713.72 65.312C712.248 64.032 710.52 63.04 708.536 62.336C706.552 61.568 704.216 61.184 701.528 61.184C696.792 61.12 692.824 62.016 689.624 63.872C686.424 65.664 684.824 68.448 684.824 72.224C684.824 74.144 685.304 76 686.264 77.792C687.288 79.52 689.112 81.024 691.736 82.304C694.424 83.584 698.264 84.48 703.256 84.992C710.872 85.76 716.792 88.096 721.016 92C725.304 95.84 727.448 100.928 727.448 107.264C727.448 110.912 726.68 114.08 725.144 116.768C723.672 119.456 721.656 121.728 719.096 123.584C716.6 125.376 713.72 126.72 710.456 127.616C707.256 128.512 703.928 128.96 700.472 128.96ZM746.693 108.896C745.285 108.896 744.101 108.448 743.141 107.552C742.245 106.592 741.797 105.408 741.797 104V57.92C741.797 56.448 742.245 55.264 743.141 54.368C744.101 53.472 745.285 53.024 746.693 53.024C748.165 53.024 749.349 53.472 750.245 54.368C751.141 55.264 751.589 56.448 751.589 57.92V104C751.589 105.408 751.141 106.592 750.245 107.552C749.349 108.448 748.165 108.896 746.693 108.896ZM786.149 128.096C784.741 128.096 783.557 127.648 782.597 126.752C781.701 125.792 781.253 124.608 781.253 123.2V99.584C781.253 95.936 780.581 92.96 779.237 90.656C777.893 88.352 776.069 86.656 773.765 85.568C771.525 84.416 768.933 83.84 765.989 83.84C763.301 83.84 760.869 84.384 758.693 85.472C756.517 86.56 754.789 88.032 753.509 89.888C752.229 91.68 751.589 93.76 751.589 96.128H745.541C745.541 92.096 746.501 88.512 748.421 85.376C750.405 82.176 753.093 79.648 756.485 77.792C759.877 75.936 763.685 75.008 767.909 75.008C772.325 75.008 776.261 75.968 779.717 77.888C783.237 79.744 785.989 82.496 787.973 86.144C790.021 89.792 791.045 94.272 791.045 99.584V123.2C791.045 124.608 790.565 125.792 789.605 126.752C788.709 127.648 787.557 128.096 786.149 128.096ZM746.693 128.096C745.285 128.096 744.101 127.648 743.141 126.752C742.245 125.792 741.797 124.608 741.797 123.2V80.384C741.797 78.912 742.245 77.728 743.141 76.832C744.101 75.936 745.285 75.488 746.693 75.488C748.165 75.488 749.349 75.936 750.245 76.832C751.141 77.728 751.589 78.912 751.589 80.384V123.2C751.589 124.608 751.141 125.792 750.245 126.752C749.349 127.648 748.165 128.096 746.693 128.096ZM829.217 128.384C824.545 128.384 820.353 127.232 816.641 124.928C812.929 122.56 809.985 119.392 807.809 115.424C805.697 111.392 804.641 106.848 804.641 101.792C804.641 96.736 805.793 92.192 808.097 88.16C810.465 84.128 813.633 80.96 817.601 78.656C821.633 76.288 826.145 75.104 831.137 75.104C836.129 75.104 840.609 76.288 844.577 78.656C848.545 80.96 851.681 84.128 853.985 88.16C856.353 92.192 857.537 96.736 857.537 101.792H853.793C853.793 106.848 852.705 111.392 850.529 115.424C848.417 119.392 845.505 122.56 841.793 124.928C838.081 127.232 833.889 128.384 829.217 128.384ZM831.137 119.744C834.401 119.744 837.313 118.976 839.873 117.44C842.433 115.84 844.449 113.696 845.921 111.008C847.393 108.256 848.129 105.184 848.129 101.792C848.129 98.336 847.393 95.264 845.921 92.576C844.449 89.824 842.433 87.68 839.873 86.144C837.313 84.544 834.401 83.744 831.137 83.744C827.937 83.744 825.025 84.544 822.401 86.144C819.841 87.68 817.793 89.824 816.257 92.576C814.785 95.264 814.049 98.336 814.049 101.792C814.049 105.184 814.785 108.256 816.257 111.008C817.793 113.696 819.841 115.84 822.401 117.44C825.025 118.976 827.937 119.744 831.137 119.744ZM852.641 128.096C851.233 128.096 850.049 127.648 849.089 126.752C848.193 125.792 847.745 124.608 847.745 123.2V108.512L849.569 98.336L857.537 101.792V123.2C857.537 124.608 857.057 125.792 856.097 126.752C855.201 127.648 854.049 128.096 852.641 128.096ZM876.814 95.168C876.814 91.328 877.742 87.904 879.598 84.896C881.518 81.824 884.078 79.392 887.278 77.6C890.478 75.808 893.998 74.912 897.838 74.912C901.678 74.912 904.526 75.552 906.382 76.832C908.302 78.048 909.038 79.52 908.59 81.248C908.398 82.144 908.014 82.848 907.438 83.36C906.926 83.808 906.318 84.096 905.614 84.224C904.91 84.352 904.142 84.32 903.31 84.128C899.214 83.296 895.534 83.232 892.27 83.936C889.006 84.64 886.414 85.952 884.494 87.872C882.638 89.792 881.71 92.224 881.71 95.168H876.814ZM876.91 128C875.374 128 874.19 127.616 873.358 126.848C872.526 126.016 872.11 124.8 872.11 123.2V80.288C872.11 78.752 872.526 77.568 873.358 76.736C874.19 75.904 875.374 75.488 876.91 75.488C878.51 75.488 879.694 75.904 880.462 76.736C881.294 77.504 881.71 78.688 881.71 80.288V123.2C881.71 124.736 881.294 125.92 880.462 126.752C879.694 127.584 878.51 128 876.91 128ZM924.653 128C923.245 128 922.061 127.552 921.101 126.656C920.205 125.696 919.757 124.512 919.757 123.104V80.384C919.757 78.912 920.205 77.728 921.101 76.832C922.061 75.936 923.245 75.488 924.653 75.488C926.125 75.488 927.309 75.936 928.205 76.832C929.101 77.728 929.549 78.912 929.549 80.384V123.104C929.549 124.512 929.101 125.696 928.205 126.656C927.309 127.552 926.125 128 924.653 128ZM924.653 66.944C922.925 66.944 921.421 66.336 920.141 65.12C918.925 63.84 918.317 62.336 918.317 60.608C918.317 58.88 918.925 57.408 920.141 56.192C921.421 54.912 922.925 54.272 924.653 54.272C926.381 54.272 927.853 54.912 929.069 56.192C930.349 57.408 930.989 58.88 930.989 60.608C930.989 62.336 930.349 63.84 929.069 65.12C927.853 66.336 926.381 66.944 924.653 66.944ZM992.118 128.096C990.71 128.096 989.526 127.648 988.566 126.752C987.67 125.792 987.222 124.608 987.222 123.2V99.584C987.222 95.936 986.55 92.96 985.206 90.656C983.862 88.352 982.038 86.656 979.734 85.568C977.494 84.416 974.902 83.84 971.958 83.84C969.27 83.84 966.838 84.384 964.662 85.472C962.486 86.56 960.758 88.032 959.478 89.888C958.198 91.68 957.558 93.76 957.558 96.128H951.51C951.51 92.096 952.47 88.512 954.39 85.376C956.374 82.176 959.062 79.648 962.454 77.792C965.846 75.936 969.654 75.008 973.878 75.008C978.294 75.008 982.23 75.968 985.686 77.888C989.206 79.744 991.958 82.496 993.942 86.144C995.99 89.792 997.014 94.272 997.014 99.584V123.2C997.014 124.608 996.534 125.792 995.574 126.752C994.678 127.648 993.526 128.096 992.118 128.096ZM952.662 128.096C951.254 128.096 950.07 127.648 949.11 126.752C948.214 125.792 947.766 124.608 947.766 123.2V80.384C947.766 78.912 948.214 77.728 949.11 76.832C950.07 75.936 951.254 75.488 952.662 75.488C954.134 75.488 955.318 75.936 956.214 76.832C957.11 77.728 957.558 78.912 957.558 80.384V123.2C957.558 124.608 957.11 125.792 956.214 126.752C955.318 127.648 954.134 128.096 952.662 128.096ZM1035.09 128.384C1030.29 128.384 1026.04 127.264 1022.32 125.024C1018.68 122.72 1015.8 119.584 1013.68 115.616C1011.57 111.584 1010.52 106.976 1010.52 101.792C1010.52 96.544 1011.64 91.936 1013.88 87.968C1016.18 83.936 1019.32 80.8 1023.28 78.56C1027.25 76.256 1031.83 75.104 1037.01 75.104C1042.13 75.104 1046.68 76.256 1050.64 78.56C1054.61 80.8 1057.72 83.936 1059.96 87.968C1062.26 91.936 1063.41 96.544 1063.41 101.792H1057.75C1057.75 106.976 1056.76 111.584 1054.77 115.616C1052.85 119.584 1050.2 122.72 1046.8 125.024C1043.41 127.264 1039.51 128.384 1035.09 128.384ZM1036.82 149.792C1032.28 149.792 1028.02 148.896 1024.05 147.104C1020.08 145.312 1016.72 142.688 1013.97 139.232C1013.14 138.144 1012.82 137.024 1013.01 135.872C1013.27 134.72 1013.91 133.792 1014.93 133.088C1016.08 132.32 1017.27 132.064 1018.48 132.32C1019.76 132.576 1020.79 133.216 1021.56 134.24C1023.28 136.416 1025.46 138.112 1028.08 139.328C1030.71 140.544 1033.68 141.152 1037.01 141.152C1040.08 141.152 1042.9 140.416 1045.46 138.944C1048.08 137.472 1050.16 135.296 1051.7 132.416C1053.24 129.536 1054 126.016 1054 121.856V108.224L1057.17 99.776L1063.41 101.792V122.528C1063.41 127.584 1062.29 132.16 1060.05 136.256C1057.81 140.416 1054.68 143.712 1050.64 146.144C1046.68 148.576 1042.07 149.792 1036.82 149.792ZM1037.01 119.744C1040.34 119.744 1043.28 118.976 1045.84 117.44C1048.4 115.904 1050.39 113.792 1051.8 111.104C1053.27 108.416 1054 105.312 1054 101.792C1054 98.272 1053.27 95.168 1051.8 92.48C1050.39 89.728 1048.4 87.584 1045.84 86.048C1043.28 84.512 1040.34 83.744 1037.01 83.744C1033.68 83.744 1030.74 84.512 1028.18 86.048C1025.62 87.584 1023.6 89.728 1022.13 92.48C1020.66 95.168 1019.92 98.272 1019.92 101.792C1019.92 105.312 1020.66 108.416 1022.13 111.104C1023.6 113.792 1025.62 115.904 1028.18 117.44C1030.74 118.976 1033.68 119.744 1037.01 119.744Z" fill="url(#paint0_linear_10_8)" fill-opacity="0.9"/>
<defs>
<linearGradient id="paint0_linear_10_8" x1="395.223" y1="86.5778" x2="566.683" y2="353.293" gradientUnits="userSpaceOnUse">
<stop stop-color="#569EC2"/>
<stop offset="1" stop-color="#9F6D90"/>
</linearGradient>
</defs>
</svg>
