<svg width="102" height="102" viewBox="0 0 102 102" fill="none" xmlns="http://www.w3.org/2000/svg">
<path d="M15.352 100.592C13.9867 100.592 12.8347 100.123 11.896 99.184C10.9573 98.2453 10.488 97.0507 10.488 95.6C10.488 94.32 10.872 93.2107 11.64 92.272L81.912 2.54401C82.5093 1.94667 83.1067 1.47734 83.704 1.13601C84.3867 0.709338 85.112 0.496002 85.88 0.496002C87.3307 0.496002 88.5253 1.008 89.464 2.03201C90.4027 2.97067 90.872 4.16534 90.872 5.616C90.872 6.72534 90.5733 7.70667 89.976 8.56001L19.192 98.928C18.0827 100.037 16.8027 100.592 15.352 100.592Z" fill="#A9A6B9"/>
<path fill-rule="evenodd" clip-rule="evenodd" d="M25.088 50.048C20.48 50.048 16.256 48.9387 12.416 46.72C8.66133 44.416 5.632 41.3867 3.328 37.632C1.10933 33.792 0 29.6107 0 25.088C0 20.5653 1.10933 16.4267 3.328 12.672C5.632 8.832 8.66133 5.76 12.416 3.456C16.256 1.152 20.48 0 25.088 0C29.6107 0 33.7493 1.152 37.504 3.456C41.344 5.76 44.3733 8.832 46.592 12.672C48.896 16.4267 50.048 20.5653 50.048 25.088C50.048 29.6107 48.896 33.792 46.592 37.632C44.3733 41.3867 41.344 44.416 37.504 46.72C33.7493 48.9387 29.6107 50.048 25.088 50.048ZM32.64 38.272C30.336 39.6373 27.8187 40.32 25.088 40.32C22.272 40.32 19.712 39.6373 17.408 38.272C15.104 36.8213 13.2267 34.944 11.776 32.64C10.4107 30.336 9.728 27.8187 9.728 25.088C9.728 22.272 10.4107 19.712 11.776 17.408C13.2267 15.104 15.104 13.2693 17.408 11.904C19.7973 10.4533 22.3573 9.728 25.088 9.728C27.7333 9.728 30.208 10.4533 32.512 11.904C34.9013 13.2693 36.7787 15.104 38.144 17.408C39.5947 19.712 40.32 22.272 40.32 25.088C40.32 27.8187 39.5947 30.336 38.144 32.64C36.7787 34.944 34.944 36.8213 32.64 38.272Z" fill="#7CB3CF"/>
<path fill-rule="evenodd" clip-rule="evenodd" d="M76.088 101.048C71.48 101.048 67.256 99.9387 63.416 97.72C59.6613 95.416 56.632 92.3867 54.328 88.632C52.1093 84.792 51 80.6107 51 76.088C51 71.5653 52.1093 67.4267 54.328 63.672C56.632 59.832 59.6613 56.76 63.416 54.456C67.256 52.152 71.48 51 76.088 51C80.6107 51 84.7493 52.152 88.504 54.456C92.344 56.76 95.3733 59.832 97.592 63.672C99.896 67.4267 101.048 71.5653 101.048 76.088C101.048 80.6107 99.896 84.792 97.592 88.632C95.3733 92.3867 92.344 95.416 88.504 97.72C84.7493 99.9387 80.6107 101.048 76.088 101.048ZM83.64 89.272C81.336 90.6373 78.8187 91.32 76.088 91.32C73.272 91.32 70.712 90.6373 68.408 89.272C66.104 87.8213 64.2267 85.944 62.776 83.64C61.4107 81.336 60.728 78.8187 60.728 76.088C60.728 73.272 61.4107 70.712 62.776 68.408C64.2267 66.104 66.104 64.2693 68.408 62.904C70.7973 61.4533 73.3573 60.728 76.088 60.728C78.7333 60.728 81.208 61.4533 83.512 62.904C85.9013 64.2693 87.7787 66.104 89.144 68.408C90.5947 70.712 91.32 73.272 91.32 76.088C91.32 78.8187 90.5947 81.336 89.144 83.64C87.7787 85.944 85.944 87.8213 83.64 89.272Z" fill="#B9A6B2"/>
</svg>
