<?xml version="1.0" standalone="no"?>
<!DOCTYPE svg PUBLIC "-//W3C//DTD SVG 20010904//EN"
 "http://www.w3.org/TR/2001/REC-SVG-20010904/DTD/svg10.dtd">
<svg version="1.0" xmlns="http://www.w3.org/2000/svg"
 width="700.000000pt" height="700.000000pt" viewBox="0 0 700.000000 700.000000"
 preserveAspectRatio="xMidYMid meet">
<metadata>
Created by potrace 1.14, written by Peter Selinger 2001-2017
</metadata>
<g transform="translate(0.000000,700.000000) scale(0.100000,-0.100000)"
fill="#000000" stroke="none">
<path d="M1550 6994 c-327 -45 -552 -128 -790 -293 -344 -237 -606 -605 -705
-988 -41 -160 -53 -272 -50 -458 3 -227 19 -327 86 -529 105 -316 321 -612
599 -820 30 -22 57 -43 60 -47 3 -3 39 -25 80 -50 159 -96 329 -163 515 -206
30 -6 132 -21 200 -29 75 -9 292 -8 363 1 299 37 518 117 755 277 480 323 772
862 771 1423 -1 227 -36 411 -116 614 -173 432 -532 802 -958 983 -198 85
-375 120 -615 123 -93 1 -181 0 -195 -1z m370 -684 c97 -21 188 -56 275 -106
78 -45 99 -58 105 -64 3 -3 18 -14 34 -24 69 -44 168 -144 237 -241 123 -172
187 -360 193 -568 6 -209 -47 -391 -170 -585 -71 -111 -214 -258 -309 -318
-16 -10 -32 -21 -35 -25 -20 -26 -221 -104 -335 -129 -128 -29 -358 -15 -510
31 -241 73 -487 279 -619 520 -34 63 -88 211 -101 279 -11 57 -15 311 -5 365
15 86 45 195 61 225 4 8 22 44 39 80 54 111 193 276 300 356 140 104 293 175
451 208 94 20 287 18 389 -4z"/>
<path d="M5810 6950 c-28 -9 -76 -35 -107 -56 -62 -42 -59 -39 -477 -574 -157
-201 -289 -369 -294 -375 -4 -5 -52 -66 -106 -135 -53 -69 -110 -140 -124
-159 -15 -19 -105 -134 -200 -255 -95 -122 -184 -234 -197 -251 -13 -16 -37
-48 -54 -70 -17 -22 -34 -44 -39 -50 -66 -83 -213 -269 -230 -293 -13 -17 -71
-91 -129 -164 -57 -73 -122 -155 -143 -183 -21 -27 -65 -84 -97 -125 -33 -41
-128 -163 -212 -270 -191 -245 -191 -245 -282 -359 -64 -82 -473 -604 -545
-696 -12 -16 -49 -64 -82 -105 -32 -41 -215 -275 -407 -520 -191 -245 -368
-470 -392 -500 -100 -127 -497 -635 -596 -763 -21 -27 -43 -55 -48 -61 -9 -12
-72 -91 -92 -116 -230 -293 -231 -295 -232 -430 0 -82 4 -103 26 -150 94 -198
348 -254 524 -114 22 17 164 190 315 384 151 193 311 398 356 453 44 56 131
167 193 247 62 80 126 161 141 180 39 49 476 607 708 905 108 138 198 252 201
255 3 3 26 32 51 65 25 33 50 65 55 71 6 6 21 26 35 44 14 18 144 184 288 369
145 185 274 350 287 366 13 17 109 138 212 270 274 350 441 562 489 625 50 64
319 408 337 430 7 8 28 35 47 60 19 25 41 52 47 60 7 8 99 125 204 260 105
135 202 259 215 275 13 17 151 192 306 391 416 530 430 549 451 600 21 55 28
137 16 200 -37 196 -240 325 -419 264z"/>
<path d="M4981 3484 c-51 -8 -121 -21 -155 -29 -33 -9 -71 -19 -84 -21 -81
-16 -291 -110 -408 -183 -378 -235 -672 -627 -777 -1036 -43 -168 -52 -241
-52 -435 0 -243 22 -377 96 -587 51 -145 174 -369 246 -448 10 -11 34 -40 54
-65 49 -61 180 -188 259 -251 308 -247 691 -372 1110 -363 559 13 1068 302
1387 788 129 196 211 405 257 661 25 133 25 375 0 525 -5 34 -7 46 -19 108
-13 65 -60 204 -99 292 -218 493 -654 875 -1147 1004 -52 14 -112 28 -134 31
-22 3 -64 9 -94 14 -79 12 -332 9 -440 -5z m483 -683 c231 -64 478 -238 608
-427 89 -130 153 -273 173 -381 25 -142 26 -276 5 -393 -64 -352 -357 -696
-690 -810 -36 -12 -74 -24 -85 -26 -11 -2 -44 -9 -74 -15 -82 -17 -238 -18
-340 -3 -215 32 -400 126 -568 287 -211 203 -318 447 -322 733 -6 394 190 725
551 931 89 51 245 109 321 119 23 4 44 8 46 10 3 2 70 2 150 0 111 -2 165 -9
225 -25z"/>
</g>
</svg>
